<?xml version="1.0" encoding="UTF-8"?>
<svg xmlns="http://www.w3.org/2000/svg" xmlns:xlink="http://www.w3.org/1999/xlink" width="48pt" height="48pt" viewBox="0 0 48 48" version="1.1">
<g id="surface6628452">
<path style=" stroke:none;fill-rule:nonzero;fill:rgb(100%,100%,100%);fill-opacity:1;" d="M 24 4 C 12.976562 4 4 12.976562 4 24 C 4 35.023438 12.976562 44 24 44 C 35.023438 44 44 35.023438 44 24 C 44 12.976562 35.023438 4 24 4 Z M 24 8 C 32.859375 8 40 15.140625 40 24 C 40 32.859375 32.859375 40 24 40 C 15.140625 40 8 32.859375 8 24 C 8 15.140625 15.140625 8 24 8 Z M 20 17.070312 L 20 30.929688 L 32 24 Z M 20 17.070312 "/>
</g>
</svg>
