<?xml version="1.0" encoding="UTF-8"?>
<svg xmlns="http://www.w3.org/2000/svg" xmlns:xlink="http://www.w3.org/1999/xlink" width="104pt" height="104pt" viewBox="0 0 104 104" version="1.1">
<g id="surface6629664">
<path style=" stroke:none;fill-rule:nonzero;fill:rgb(100%,100%,100%);fill-opacity:1;" d="M 40 0 L 0 8 L 12.125 20.125 C 5.09375 28.890625 0.75 39.890625 0.75 52 C 0.75 80.296875 23.6875 103.25 52 103.25 C 80.3125 103.25 103.25 80.296875 103.25 52 C 103.25 30.78125 90.375 12.53125 72 4.75 L 72 17.125 C 84.109375 24.078125 92.25 37.046875 92.25 52 C 92.25 74.25 74.25 92.25 52 92.25 C 29.75 92.25 11.75 74.25 11.75 52 C 11.75 42.90625 14.78125 34.609375 19.875 27.875 L 32 40 Z M 40 0 "/>
</g>
</svg>
